<svg width="28" height="26" viewBox="0 0 28 26" fill="none" xmlns="http://www.w3.org/2000/svg">
<path fill-rule="evenodd" clip-rule="evenodd" d="M26.8442 5.20703L24.1242 16.777H8.53422L5.82422 5.20703H26.8442Z" stroke="#333333" stroke-width="1.7" stroke-linecap="square" stroke-linejoin="round"/>
<path d="M21.6839 24.467C22.8658 24.467 23.8239 23.5089 23.8239 22.327C23.8239 21.1451 22.8658 20.187 21.6839 20.187C20.5021 20.187 19.5439 21.1451 19.5439 22.327C19.5439 23.5089 20.5021 24.467 21.6839 24.467Z" stroke="#333333" stroke-width="1.7" stroke-linecap="square" stroke-linejoin="round"/>
<path d="M10.974 24.467C12.1559 24.467 13.114 23.5089 13.114 22.327C13.114 21.1451 12.1559 20.187 10.974 20.187C9.7921 20.187 8.83398 21.1451 8.83398 22.327C8.83398 23.5089 9.7921 24.467 10.974 24.467Z" stroke="#333333" stroke-width="1.7" stroke-linecap="square" stroke-linejoin="round"/>
<path d="M1.16406 1.547H4.96406L6.72406 9.047" stroke="#333333" stroke-width="1.7" stroke-linecap="square" stroke-linejoin="round"/>
</svg>
